<svg width="60" height="55" viewBox="0 0 60 55" fill="none" xmlns="http://www.w3.org/2000/svg">
<path d="M24.9573 29.8315C26.825 24.6056 31.5601 20.8373 37.1082 20.2056C35.2955 15.0475 30.3846 11.3579 24.6095 11.3579C17.2925 11.3579 11.3545 17.2869 11.3545 24.6056C11.3545 28.0956 12.7058 31.2688 14.9141 33.6382C17.4538 31.2762 20.8595 29.8241 24.6022 29.8241C24.7193 29.8242 24.8327 29.8315 24.9573 29.8315Z" fill="#1890FF"/>
<path d="M26.5376 0H22.6776V7.43039H26.5376V0Z" fill="#1890FF"/>
<path d="M13.8263 11.0961L8.57298 5.84285L5.84286 8.57121L11.0963 13.8262L13.8263 11.0961Z" fill="#1890FF"/>
<path d="M7.43039 22.6777H0V26.5376H7.43039V22.6777Z" fill="#1890FF"/>
<path d="M5.84286 40.6403L8.56935 43.374L10.6293 41.3122C10.9534 39.6588 11.5631 38.1079 12.4127 36.7107L11.0925 35.3905L5.84286 40.6403Z" fill="#1890FF"/>
<path d="M43.374 8.57121L40.6421 5.84109L35.3906 11.0961L38.1189 13.8263L43.374 8.57121Z" fill="#1890FF"/>
<path d="M49.5209 32.8473C48.4388 27.8284 43.9801 24.0674 38.6389 24.0674C33.2409 24.0674 28.7439 27.9053 27.7222 33.0029C27.118 32.8985 26.499 32.8327 25.8655 32.8327C19.9182 32.8327 15.0989 37.652 15.0989 43.5974C15.0989 49.5446 19.9182 54.364 25.8655 54.364C30.9466 54.364 44.2346 54.364 49.2334 54.364C55.1807 54.364 60 49.5446 60 43.5974C60 37.7471 55.3345 32.9993 49.5209 32.8473Z" fill="#1890FF"/>
</svg>
